<?xml version="1.0" encoding="utf-8"?>
<!-- Generator: Adobe Illustrator 17.1.0, SVG Export Plug-In . SVG Version: 6.00 Build 0)  -->
<!DOCTYPE svg PUBLIC "-//W3C//DTD SVG 1.1//EN" "http://www.w3.org/Graphics/SVG/1.1/DTD/svg11.dtd">
<svg version="1.1" id="Layer_1" xmlns="http://www.w3.org/2000/svg" xmlns:xlink="http://www.w3.org/1999/xlink" x="0px" y="0px"
	 viewBox="0 0 50 50" enable-background="new 0 0 50 50" xml:space="preserve">
<g>
	<path fill="#DF683A" d="M41.348,25.622c-1.802,7.626-10.498,13.529-19.424,13.185s-14.701-6.804-12.9-14.429
		s10.498-13.529,19.424-13.185C37.374,11.536,43.149,17.996,41.348,25.622z"/>
	<path fill="#FAEAEA" d="M39.778,26.417c-3.15,3.884-8.723,4.412-17.636,3.822c-5.71-0.378-9.662-2.697-11.081-4.971
		c-4.184-6.708,8.46-14.419,17.386-14.075C37.374,11.536,44.765,20.267,39.778,26.417z"/>
	<path fill="#F5A282" d="M39.778,26.417c-3.15,3.884-8.723,4.412-17.636,3.822c-5.71-0.378-10.158-2.47-11.081-4.971
		c-2.472-6.701,11.52-11.011,17.056-10.722C37.038,15.011,44.765,20.267,39.778,26.417z"/>
	<path fill="none" stroke="#000000" stroke-width="2" stroke-miterlimit="10" d="M41.348,25.622
		c-1.802,7.626-10.498,13.529-19.424,13.185s-14.701-6.804-12.9-14.429s10.498-13.529,19.424-13.185
		C37.374,11.536,43.149,17.996,41.348,25.622z"/>
	<path fill="#DF683A" d="M19.096,26.875c1.569,3.284,0.846,6.899-3.037,8.754c-3.883,1.855-9.455,1.248-11.024-2.036
		c-1.569-3.284,1.459-8.001,5.342-9.856C14.26,21.882,17.527,23.591,19.096,26.875z"/>
	<path fill="#FAEAEA" d="M17.298,27.11c-0.064,1.443-1.757,4.111-3.086,5.882c-2.583,3.442-7.607,3.886-9.176,0.602
		c-1.569-3.284,1.459-8.001,5.342-9.856C14.26,21.882,17.459,23.474,17.298,27.11z"/>
	<path fill="none" stroke="#000000" stroke-width="2" stroke-miterlimit="10" d="M19.096,26.875
		c1.569,3.284,0.846,6.899-3.037,8.754c-3.883,1.855-9.455,1.248-11.024-2.036c-1.569-3.284,1.459-8.001,5.342-9.856
		C14.26,21.882,17.527,23.591,19.096,26.875z"/>
	<path fill="#E6E6E6" d="M40.536,16.929c2.51,3.831,2.231,8.593-0.623,10.637c-2.854,2.044-7.202,0.596-9.712-3.235
		s-2.231-8.593,0.623-10.637S38.026,13.098,40.536,16.929z"/>
	<path fill="#FFFFFF" d="M40.363,17.052c2.404,3.668,2.604,7.894,0.448,9.438c-2.156,1.544-5.852-0.177-8.256-3.846
		c-2.404-3.668-2.604-7.894-0.448-9.438C34.263,11.662,37.96,13.384,40.363,17.052z"/>
	<path fill="none" stroke="#000000" stroke-width="2" stroke-miterlimit="10" d="M40.536,16.929
		c2.51,3.831,2.231,8.593-0.623,10.637c-2.854,2.044-7.202,0.596-9.712-3.235s-2.231-8.593,0.623-10.637
		S38.026,13.098,40.536,16.929z"/>
	<path d="M39.183,19.982c0.393,1.392,0.176,2.691-0.485,2.901c-0.661,0.21-1.516-0.748-1.91-2.14
		c-0.393-1.392-0.176-2.691,0.485-2.901C37.934,17.631,38.789,18.589,39.183,19.982z"/>
	<path fill="#F2B940" d="M30.968,31.885c0,0,13.948-1.131,12.879,1.629c-1.07,2.759-3.84,3.186-10.291,2.671
		s-13.18-6.833-1.841-8.768s17.236,2.254,11.368,4.934"/>
	<path fill="none" stroke="#000000" stroke-width="2" stroke-miterlimit="10" d="M30.968,31.885c0,0,13.948-1.131,12.879,1.629
		c-1.07,2.759-3.84,3.186-10.291,2.671s-13.18-6.833-1.841-8.768s17.236,2.254,11.368,4.934"/>
</g>
</svg>
