<?xml version="1.0" encoding="utf-8"?>
<!-- Generator: Adobe Illustrator 17.1.0, SVG Export Plug-In . SVG Version: 6.00 Build 0)  -->
<!DOCTYPE svg PUBLIC "-//W3C//DTD SVG 1.1//EN" "http://www.w3.org/Graphics/SVG/1.1/DTD/svg11.dtd">
<svg version="1.1" id="Layer_1" xmlns="http://www.w3.org/2000/svg" xmlns:xlink="http://www.w3.org/1999/xlink" x="0px" y="0px"
	 viewBox="0 0 50 50" enable-background="new 0 0 50 50" xml:space="preserve">
<g>
	<path fill="#DF683A" d="M41.159,25.622c-1.802,7.626-10.498,13.529-19.424,13.185s-14.701-6.804-12.9-14.429
		s10.498-13.529,19.424-13.185C37.185,11.536,42.96,17.996,41.159,25.622z"/>
	<path fill="#FAEAEA" d="M39.589,26.417c-3.15,3.884-8.723,4.412-17.636,3.822c-5.71-0.378-9.662-2.697-11.081-4.971
		c-4.184-6.708,8.46-14.419,17.386-14.075C37.185,11.536,44.576,20.267,39.589,26.417z"/>
	<path fill="#F5A282" d="M39.589,26.417c-3.15,3.884-8.723,4.412-17.636,3.822c-5.71-0.378-10.158-2.47-11.081-4.971
		C8.4,18.567,22.392,14.257,27.929,14.546C36.849,15.011,44.576,20.267,39.589,26.417z"/>
	<path fill="none" stroke="#000000" stroke-width="2" stroke-miterlimit="10" d="M41.159,25.622
		c-1.802,7.626-10.498,13.529-19.424,13.185s-14.701-6.804-12.9-14.429s10.498-13.529,19.424-13.185
		C37.185,11.536,42.96,17.996,41.159,25.622z"/>
	<path fill="#DF683A" d="M18.907,26.875c-1.807,3.159-5.191,4.622-8.927,2.485s-6.407-7.064-4.599-10.223s7.409-3.354,11.144-1.217
		S20.714,23.716,18.907,26.875z"/>
	<path fill="#FAEAEA" d="M17.691,25.53c-1.223,0.768-4.38,0.895-6.593,0.81c-4.3-0.166-7.524-4.044-5.717-7.203
		s7.409-3.354,11.144-1.217S20.772,23.594,17.691,25.53z"/>
	<path fill="none" stroke="#000000" stroke-width="2" stroke-miterlimit="10" d="M18.907,26.875
		c-1.807,3.159-5.191,4.622-8.927,2.485s-6.407-7.064-4.599-10.223s7.409-3.354,11.144-1.217S20.714,23.716,18.907,26.875z"/>
	<path fill="#E6E6E6" d="M40.347,16.929c2.51,3.831,2.231,8.593-0.623,10.637c-2.854,2.044-7.202,0.596-9.712-3.235
		s-2.231-8.593,0.623-10.637S37.837,13.098,40.347,16.929z"/>
	<path fill="#FFFFFF" d="M40.174,17.052c2.404,3.668,2.604,7.894,0.448,9.438c-2.156,1.544-5.852-0.177-8.256-3.846
		s-2.604-7.894-0.448-9.438S37.771,13.384,40.174,17.052z"/>
	<path fill="none" stroke="#000000" stroke-width="2" stroke-miterlimit="10" d="M40.347,16.929
		c2.51,3.831,2.231,8.593-0.623,10.637c-2.854,2.044-7.202,0.596-9.712-3.235s-2.231-8.593,0.623-10.637
		S37.837,13.098,40.347,16.929z"/>
	<path d="M38.994,19.982c0.393,1.392,0.176,2.691-0.485,2.901c-0.661,0.21-1.516-0.748-1.91-2.14s-0.176-2.691,0.485-2.901
		C37.745,17.631,38.6,18.589,38.994,19.982z"/>
	<path fill="#F2B940" d="M30.779,31.885c0,0,13.948-1.131,12.879,1.629c-1.07,2.759-3.84,3.186-10.291,2.671
		s-13.18-6.833-1.841-8.768s17.236,2.254,11.368,4.934"/>
	<path fill="none" stroke="#000000" stroke-width="2" stroke-miterlimit="10" d="M30.779,31.885c0,0,13.948-1.131,12.879,1.629
		c-1.07,2.759-3.84,3.186-10.291,2.671s-13.18-6.833-1.841-8.768s17.236,2.254,11.368,4.934"/>
</g>
</svg>
